<svg width="27" height="27" viewBox="0 0 27 27" fill="none" xmlns="http://www.w3.org/2000/svg">
<path d="M18.5625 0H8.4375C3.77831 0 0 3.77831 0 8.4375V18.5625C0 23.2217 3.77831 27 8.4375 27H18.5625C23.2217 27 27 23.2217 27 18.5625V8.4375C27 3.77831 23.2217 0 18.5625 0ZM24.4688 18.5625C24.4688 21.8194 21.8194 24.4688 18.5625 24.4688H8.4375C5.18062 24.4688 2.53125 21.8194 2.53125 18.5625V8.4375C2.53125 5.18062 5.18062 2.53125 8.4375 2.53125H18.5625C21.8194 2.53125 24.4688 5.18062 24.4688 8.4375V18.5625Z" fill="#626262"/>
<path d="M14 7C10.1342 7 7 10.1342 7 14C7 17.8658 10.1342 21 14 21C17.8658 21 21 17.8658 21 14C21 10.1342 17.8658 7 14 7ZM14 18.375C11.5885 18.375 9.625 16.4115 9.625 14C9.625 11.5868 11.5885 9.625 14 9.625C16.4115 9.625 18.375 11.5868 18.375 14C18.375 16.4115 16.4115 18.375 14 18.375Z" fill="#626262"/>
<path d="M21 7C21.5523 7 22 6.55229 22 6C22 5.44772 21.5523 5 21 5C20.4477 5 20 5.44772 20 6C20 6.55229 20.4477 7 21 7Z" fill="#626262"/>
</svg>
