<svg width="34" height="19" viewBox="0 0 34 19" fill="none" xmlns="http://www.w3.org/2000/svg">
<path d="M33.6969 16.9468C33.6056 16.7969 33.0403 15.5939 30.3201 13.1212C27.4724 10.532 27.8549 10.9524 31.2849 6.47536C33.3739 3.74875 34.2091 2.08364 33.9477 1.37181C33.6991 0.693277 32.1626 0.872276 32.1626 0.872276L27.0537 0.901416C27.0537 0.901416 26.6754 0.851462 26.3928 1.01589C26.1186 1.17824 25.9423 1.55289 25.9423 1.55289C25.9423 1.55289 25.1326 3.66341 24.053 5.45756C21.777 9.2436 20.8653 9.44341 20.4934 9.20822C19.6284 8.66082 19.8452 7.00611 19.8452 5.83221C19.8452 2.16273 20.4126 0.632917 18.738 0.237454C18.1812 0.106327 17.7732 0.0189088 16.3514 0.00433909C14.528 -0.0143934 12.9831 0.0105832 12.1096 0.428941C11.5273 0.707847 11.0789 1.33018 11.3531 1.36556C11.691 1.40927 12.456 1.56746 12.8619 2.10862C13.3868 2.80588 13.3677 4.37525 13.3677 4.37525C13.3677 4.37525 13.6695 8.69412 12.6643 9.23111C11.9736 9.59952 11.0279 8.84814 8.99838 5.41177C7.95918 3.65301 7.17288 1.70691 7.17288 1.70691C7.17288 1.70691 7.02199 1.34475 6.7521 1.15118C6.42482 0.915986 5.96579 0.841056 5.96579 0.841056L1.10768 0.870195C1.10768 0.870195 0.378752 0.891009 0.110983 1.20114C-0.127035 1.47796 0.0918562 2.04826 0.0918562 2.04826C0.0918562 2.04826 3.89589 10.763 8.20145 15.1568C12.1521 19.1843 16.6362 18.92 16.6362 18.92H18.6678C18.6678 18.92 19.282 18.8534 19.5944 18.5224C19.8834 18.2185 19.8728 17.6482 19.8728 17.6482C19.8728 17.6482 19.8324 14.9778 21.099 14.5844C22.3465 14.1973 23.9489 17.1653 25.6469 18.308C26.9305 19.1718 27.9059 18.9824 27.9059 18.9824L32.4474 18.92C32.4474 18.92 34.8233 18.7763 33.6969 16.9468Z" fill="#626262"/>
</svg>
