<?xml version="1.0" encoding="utf-8"?><svg xmlns="http://www.w3.org/2000/svg" xmlns:xlink="http://www.w3.org/1999/xlink"><symbol fill="none" viewBox="0 0 43 44" id="hero-item-1" xmlns="http://www.w3.org/2000/svg"><path d="M10.56 41.023c-4.047 2.111-7.221 2.599-8.729 1.137-3.174-3.249 3.015-14.944 13.886-26.071M32.379 3.013C36.505.9 39.68.333 41.187 1.876c2.221 2.355-.238 8.853-5.793 16.487m5 3.249H35.95l-1.349 1.38h-2.936l-5.316-5.441h-6.665v-2.274l1.904-2.03h4.126l2.063-2.113h5.554l2.063-2.111m-25.231 6.985h5.554v5.441m24.676.569c0 10.496-8.313 19.005-18.567 19.005S3.26 32.513 3.26 22.018c0-10.497 8.312-19.005 18.566-19.005 10.255 0 18.567 8.508 18.567 19.005zm-21.74 4.873v-3.492l1.666-1.625h4.998l4.444 4.548v6.173l-2.857 2.924h-2.697V29.57l-2.619-2.68h-2.936z" stroke="#26A4CC" stroke-width="2" stroke-miterlimit="10" stroke-linecap="round" stroke-linejoin="round"/></symbol><symbol fill="none" viewBox="0 0 24 28" id="slider-arrow" xmlns="http://www.w3.org/2000/svg"><path d="M1.5 11.402c-2 1.155-2 4.041 0 5.196l18 10.392c2 1.155 4.5-.288 4.5-2.598V3.608c0-2.31-2.5-3.753-4.5-2.598l-18 10.392z" fill="#E9E9E9"/></symbol><symbol fill="none" viewBox="0 0 33 33" id="social-icon" xmlns="http://www.w3.org/2000/svg"><path d="M16.5 33C25.613 33 33 25.613 33 16.5S25.613 0 16.5 0 0 7.387 0 16.5 7.387 33 16.5 33z" fill="#6F3FAA"/><path d="M22.94 9.343c-3.937-.967-7.881-2.097-11.918-.66-2.614.996-2.614 3.874-2.505 6.31 0 .665-.762 1.55-.436 2.325.654 2.215 1.198 4.429 3.486 5.536.326.222 0 .665.217.997-.109 0-.327.11-.327.221 0 .53.235 1.343.08 1.866L18.485 33C25.63 31.843 31.214 25.93 32 18.554l-9.06-9.211z" fill="#512D84"/><path d="M24.597 11.568l-.005-.022c-.434-1.793-2.392-3.717-4.19-4.117l-.02-.004a22.808 22.808 0 00-8.764 0l-.02.004c-1.798.4-3.756 2.324-4.19 4.117l-.005.022a17.882 17.882 0 000 7.546l.004.022c.417 1.716 2.229 3.552 3.96 4.056v2.002c0 .724.864 1.08 1.355.557l1.986-2.108a22.658 22.658 0 005.674-.386l.02-.004c1.798-.4 3.756-2.324 4.19-4.117l.005-.022a17.883 17.883 0 000-7.546zm-1.57 7.183c-.29 1.17-1.777 2.624-2.958 2.893-1.546.3-3.105.428-4.662.384a.109.109 0 00-.082.034l-1.45 1.52-1.542 1.616c-.112.12-.31.039-.31-.127v-3.315a.114.114 0 00-.091-.112h-.001c-1.181-.27-2.667-1.723-2.958-2.893a16.226 16.226 0 010-6.82c.29-1.17 1.777-2.624 2.958-2.892 2.7-.525 5.438-.525 8.138 0 1.181.268 2.667 1.722 2.957 2.892a16.208 16.208 0 010 6.82z" fill="#fff"/><path d="M18.372 20c-.185-.055-.36-.093-.524-.16-1.692-.695-3.25-1.592-4.483-2.967-.701-.782-1.25-1.665-1.714-2.6-.22-.442-.406-.903-.595-1.36-.172-.417.082-.848.35-1.162.25-.295.573-.521.922-.688.273-.13.542-.055.742.175.43.495.826 1.016 1.147 1.59.197.353.143.784-.215 1.025-.086.058-.165.127-.246.193a.802.802 0 00-.187.194.528.528 0 00-.035.468c.44 1.199 1.182 2.131 2.4 2.633.195.08.391.174.616.148.376-.044.497-.452.761-.666.258-.208.587-.211.864-.037.278.174.547.36.814.55.263.185.524.366.766.577.233.203.313.47.182.745-.24.505-.59.925-1.093 1.193-.142.076-.312.1-.472.149-.185-.055.16-.049 0 0zm-1.968-9c2.24.06 4.08 1.483 4.474 3.601.067.361.09.73.12 1.096.013.155-.078.3-.252.303-.18.002-.26-.142-.272-.296-.023-.305-.039-.61-.083-.913-.231-1.596-1.562-2.917-3.223-3.2-.25-.043-.506-.054-.759-.08-.16-.015-.37-.025-.405-.215-.03-.16.111-.287.27-.295.043-.002.086 0 .13 0 2.24.06-.044 0 0 0z" fill="#fff"/><path d="M19 15.619c-.003.031-.005.105-.02.175-.052.253-.353.285-.422.03a.955.955 0 01-.024-.244c0-.534-.092-1.067-.303-1.532-.218-.477-.55-.878-.939-1.121a2.294 2.294 0 00-.748-.292c-.112-.024-.226-.038-.34-.059-.137-.024-.21-.135-.204-.308.006-.161.1-.277.237-.267a2.6 2.6 0 011.297.43c.82.554 1.29 1.428 1.426 2.595.006.053.016.105.02.158.007.13.012.262.02.435-.003.031-.008-.173 0 0z" fill="#fff"/><path d="M17.776 15c-.2.003-.307-.104-.328-.282-.014-.124-.026-.25-.056-.37a1.037 1.037 0 00-.397-.602 1.054 1.054 0 00-.323-.15c-.147-.042-.3-.03-.446-.065-.159-.038-.247-.163-.222-.307a.285.285 0 01.303-.223c.928.065 1.59.528 1.685 1.585.007.074.015.153-.002.224a.235.235 0 01-.214.19c-.2.003.09-.007 0 0z" fill="#fff"/><path d="M25.58 11.819l-.005-.022c-.254-.987-1.007-2.015-1.95-2.797l-1.274 1.087c.758.582 1.407 1.387 1.592 2.088a15.036 15.036 0 010 6.702c-.302 1.15-1.852 2.578-3.083 2.842a23.473 23.473 0 01-4.858.378.117.117 0 00-.086.034l-1.51 1.493-1.608 1.588c-.117.118-.324.038-.324-.125v-3.258c0-.053-.04-.1-.095-.11-.7-.15-1.502-.676-2.12-1.313L9 21.48c.786.823 1.8 1.49 2.79 1.761v1.967c0 .712.901 1.061 1.413.548l2.07-2.072a25.016 25.016 0 005.914-.379l.02-.004c1.875-.393 3.915-2.284 4.368-4.045l.005-.022c.56-2.46.56-4.955 0-7.415z" fill="#D1D1D1"/><path d="M19.056 20.04c.16-.05-.184-.056 0 0z" fill="#fff"/><path d="M20.745 17.932c-.252-.21-.524-.389-.797-.572a18.711 18.711 0 00-.847-.545.782.782 0 00-.9.037c-.273.212-.4.616-.791.66-.234.025-.438-.067-.64-.147A4.11 4.11 0 0114.95 16l-.95.795.096.106c1.283 1.363 2.904 2.252 4.664 2.94.17.067.353.104.545.159-.192-.055.167-.048 0 0 .167-.048.344-.073.492-.148.524-.265.888-.681 1.137-1.182.137-.273.054-.537-.189-.738z" fill="#D1D1D1"/><path d="M17.006 11zM17 11h.006c.126.005 2.176.06-.006 0z" fill="#fff"/><path d="M19.444 12l-.444.359c.697.619 1.178 1.44 1.315 2.342.05.325.067.654.093.981.014.166.104.32.307.318.195-.002.298-.16.284-.325-.034-.393-.06-.79-.136-1.177A4.501 4.501 0 0019.443 12zm.491 3.04c-.163-.836-.616-1.52-1.368-2.04l-.567.386c.293.2.547.434.743.693.345.457.494.982.495 1.507 0 .08.005.165.039.24.113.252.605.22.691-.029.024-.069.027-.141.032-.172-.005.03-.013-.17 0 0-.013-.17-.02-.3-.034-.428-.005-.053-.02-.104-.031-.156z" fill="#D1D1D1"/><path d="M19.005 15.062c-.009-.152-.004.027 0 0zm-.981-.06l.01-.002H18l.024.002zm.042-.001L18.043 15a.328.328 0 00.023.001z" fill="#fff"/><path d="M18.009 15l-.009.002c.022-.002.02-.002.009-.002z" fill="#fff"/><path d="M18.398 13l-.398.44a.959.959 0 01.064.054c.192.175.314.44.37.725.028.145.038.295.052.444.018.204.111.33.281.337h.033c.082-.012.164-.084.19-.226.016-.086.009-.18.003-.27-.05-.71-.265-1.198-.595-1.504z" fill="#D1D1D1"/></symbol><symbol fill="none" viewBox="0 0 27 27" id="socials-fac" xmlns="http://www.w3.org/2000/svg"><path d="M23.625 0H3.375A3.378 3.378 0 000 3.375v20.25A3.378 3.378 0 003.375 27H13.5v-9.281h-3.375V13.5H13.5v-3.375a5.062 5.062 0 015.063-5.063h3.375v4.22H20.25c-.931 0-1.688-.088-1.688.843V13.5h4.22l-1.688 4.219h-2.532V27h5.063A3.378 3.378 0 0027 23.625V3.375A3.378 3.378 0 0023.625 0z" fill="#626262"/></symbol><symbol fill="none" viewBox="0 0 27 27" id="socials-inst" xmlns="http://www.w3.org/2000/svg"><path d="M18.563 0H8.438A8.438 8.438 0 000 8.438v10.124A8.438 8.438 0 008.438 27h10.124A8.438 8.438 0 0027 18.562V8.438A8.438 8.438 0 0018.562 0zm5.906 18.563a5.913 5.913 0 01-5.907 5.906H8.438a5.913 5.913 0 01-5.906-5.907V8.438a5.913 5.913 0 015.906-5.906h10.126a5.913 5.913 0 015.906 5.906v10.126z" fill="#626262"/><path d="M14 7a7 7 0 100 14 7 7 0 000-14zm0 11.375A4.381 4.381 0 019.625 14 4.38 4.38 0 0114 9.625 4.38 4.38 0 0118.375 14 4.381 4.381 0 0114 18.375zM21 7a1 1 0 100-2 1 1 0 000 2z" fill="#626262"/></symbol><symbol fill="none" viewBox="0 0 27 27" id="socials-odnok" xmlns="http://www.w3.org/2000/svg"><rect width="27" height="27" rx="5" fill="#626262"/><path d="M13.598 16.64c-1.42-.146-2.7-.493-3.797-1.341-.136-.106-.276-.208-.4-.325-.48-.457-.528-.979-.149-1.517.325-.46.87-.584 1.437-.32.11.052.214.116.315.184 2.043 1.39 4.85 1.428 6.9.063.203-.154.42-.28.672-.344.49-.125.946.053 1.209.477.3.484.296.957-.074 1.332-.567.576-1.249.993-2.007 1.284-.716.275-1.501.414-2.278.505.117.127.172.189.246.262 1.055 1.049 2.114 2.093 3.165 3.145.358.359.433.803.236 1.22-.215.456-.698.756-1.172.723-.3-.02-.533-.168-.741-.375-.796-.793-1.607-1.57-2.387-2.378-.227-.235-.336-.19-.536.013-.801.816-1.615 1.62-2.434 2.418-.367.359-.805.423-1.231.218-.453-.217-.742-.675-.72-1.135.016-.311.17-.549.386-.762 1.044-1.032 2.085-2.066 3.127-3.1.069-.068.133-.14.233-.247z" fill="#fff"/><path d="M14.467 13c-2.462-.008-4.481-2.047-4.467-4.51A4.51 4.51 0 0114.521 4c2.492.007 4.491 2.042 4.479 4.558-.013 2.458-2.046 4.45-4.533 4.442zm2.238-4.504a2.193 2.193 0 00-2.202-2.198 2.196 2.196 0 00-2.207 2.224 2.193 2.193 0 002.219 2.18 2.189 2.189 0 002.19-2.206z" fill="#fff"/></symbol><symbol fill="none" viewBox="0 0 34 19" id="socials-vk" xmlns="http://www.w3.org/2000/svg"><path d="M33.697 16.947c-.091-.15-.657-1.353-3.377-3.826-2.848-2.589-2.465-2.169.965-6.646 2.089-2.726 2.924-4.391 2.663-5.103-.249-.679-1.785-.5-1.785-.5l-5.11.03s-.378-.05-.66.114c-.274.162-.45.537-.45.537s-.81 2.11-1.89 3.905c-2.276 3.786-3.188 3.985-3.56 3.75-.865-.547-.648-2.202-.648-3.376 0-3.67.568-5.2-1.107-5.595-.557-.13-.965-.218-2.387-.233-1.823-.018-3.368.007-4.241.425-.583.279-1.031.901-.757.937.338.043 1.103.201 1.509.743.525.697.506 2.266.506 2.266s.301 4.32-.704 4.856c-.69.369-1.636-.383-3.666-3.82C7.96 3.654 7.173 1.708 7.173 1.708s-.151-.362-.42-.556c-.328-.235-.787-.31-.787-.31l-4.858.03S.378.89.11 1.2c-.238.277-.02.847-.02.847s3.805 8.715 8.11 13.109c3.951 4.027 8.435 3.763 8.435 3.763h2.032s.614-.067.926-.398c.29-.303.279-.874.279-.874s-.04-2.67 1.226-3.064c1.247-.387 2.85 2.581 4.548 3.724 1.284.864 2.259.674 2.259.674l4.541-.062s2.376-.144 1.25-1.973z" fill="#626262"/></symbol></svg>